<svg xmlns="http://www.w3.org/2000/svg" viewBox="0 0 1200 630">
  <defs>
    <linearGradient id="bg" x1="0" x2="1" y1="0" y2="1">
      <stop stop-color="#050713"/>
      <stop offset="1" stop-color="#111b3f"/>
    </linearGradient>
    <linearGradient id="neon" x1="160" x2="980" y1="90" y2="540" gradientUnits="userSpaceOnUse">
      <stop stop-color="#00e5ff"/>
      <stop offset="0.5" stop-color="#8a5cff"/>
      <stop offset="1" stop-color="#55ffb6"/>
    </linearGradient>
  </defs>
  <rect width="1200" height="630" fill="url(#bg)"/>
  <g opacity="0.18" stroke="#8bdcff">
    <path d="M0 110H1200M0 220H1200M0 330H1200M0 440H1200M0 550H1200"/>
    <path d="M120 0V630M240 0V630M360 0V630M480 0V630M600 0V630M720 0V630M840 0V630M960 0V630M1080 0V630"/>
  </g>
  <circle cx="965" cy="155" r="170" fill="#00e5ff" opacity="0.18"/>
  <circle cx="109" cy="532" r="210" fill="#ff3df2" opacity="0.13"/>
  <rect x="82" y="78" width="1036" height="474" rx="44" fill="rgba(255,255,255,0.04)" stroke="url(#neon)" stroke-width="3"/>
  <text x="120" y="176" fill="#55ffb6" font-family="Arial, sans-serif" font-size="34" font-weight="800" letter-spacing="7">SK EMBEDDED / CYBER BLOG</text>
  <text x="120" y="320" fill="#eef6ff" font-family="Arial, sans-serif" font-size="104" font-weight="900">SK Lab</text>
  <text x="120" y="405" fill="#9fb2d8" font-family="Arial, sans-serif" font-size="42" font-weight="700">嵌入式开发 · 个人项目 · 游戏 · 动漫</text>
  <text x="120" y="485" fill="#00e5ff" font-family="Arial, sans-serif" font-size="30" font-weight="700">真实状态：文章 1，公开项目 0，访问统计未接入</text>
</svg>
